Simulation
nRows=42
nColumns=15
endheader
time  TH_x TH_y TH_z SC_y  SC_z  SC_x  AC_y  AC_z  AC_x  GH_y  GH_z  GH_yy  EL_x  PS_y
0.0  0.000000  0.000000  0.000000  -28.875131085486842  -0.24745378855405423  -2.6158501327697357  55.29879245628973  8.307646448770198  -6.39454415729236  33.56580456546709  16.234305846270992  7.464832789425173  27.15375886962648  0.000000
0.038999999999999986  0.000000  0.000000  0.000000  -28.465138925113358  -0.04476086786292204  -2.672551799329316  54.96623493887955  8.250629153670035  -6.404027004276515  33.60803587524237  16.654470693100482  7.230639113816715  26.731946126364033  0.000000
0.07799999999999997  0.000000  0.000000  0.000000  -28.095278536668125  0.0853577731253755  -2.8155404176868633  54.626573429354124  8.159739849511892  -6.428499064792518  33.58450915609834  16.98845216122011  7.0845660620262745  26.30518396519943  0.000000
0.11699999999999997  0.000000  0.000000  0.000000  -27.774204214300973  0.14083248422622055  -3.040388302626193  54.31928853724816  8.09121209252261  -6.43870477755039  33.63219160470646  17.301774630235567  6.861971872271841  25.89933753509747  0.000000
0.15599999999999994  0.000000  0.000000  0.000000  -27.511717248327745  0.12514334462655416  -3.31962327108489  54.08793249420265  8.081403801365102  -6.419399647286996  33.89510610716887  17.67324281453634  6.361555286429694  25.53212232475093  0.000000
0.19499999999999992  0.000000  0.000000  0.000000  -27.32483730586212  0.05932788273689541  -3.605410955979984  53.96519933856215  8.141306798089825  -6.361040822476799  34.49999132794505  18.178464038284318  5.401471012927574  25.222463775804552  0.000000
0.23399999999999993  0.000000  0.000000  0.000000  -27.217772508101003  -0.0290884283847566  -3.8474303984469533  53.962514826714234  8.266893968631415  -6.267647234256444  35.53328061844013  18.87865796181566  3.8412177349209418  24.982428048972665  0.000000
0.2729999999999999  0.000000  0.000000  0.000000  -27.187177858021016  -0.11328996058428897  -3.9992578090855417  54.07699306723825  8.442788139678647  -6.152084354041062  37.001503021179644  19.818286603319542  1.6351941318485979  24.815041067657834  0.000000
0.3119999999999999  0.000000  0.000000  0.000000  -27.21226145349081  -0.17188410192550102  -4.024718620497743  54.29228303989513  8.648512963006745  -6.032801088316048  38.8254679611847  21.020462038301204  -1.1637648059832282  24.716452457729993  0.000000
0.35099999999999987  0.000000  0.000000  0.000000  -27.259117561225597  -0.19292541968111124  -3.8984282879442613  54.58926069928227  8.863634440957789  -5.928959655696168  40.85056836613123  22.48538804069032  -4.405354478549477  24.678059124700493  0.000000
0.38999999999999985  0.000000  0.000000  0.000000  -27.286246757283205  -0.16982613657020937  -3.604684284401321  54.9459791427894  9.070492582054854  -5.857158735020036  42.898765180601174  24.189289961429377  -7.896159548590744  24.695662793538613  0.000000
0.4289999999999998  0.000000  0.000000  0.000000  -27.25627252956164  -0.10148165728148711  -3.134070151946028  55.34278117114171  9.256393380492717  -5.83184545542647  44.81560521598108  26.0888453693994  -11.447951906372968  24.763895823692938  0.000000
0.46799999999999986  0.000000  0.000000  0.000000  -27.142904931084182  0.008574412689742707  -2.4833046184059633  55.76081444225446  9.414987713575142  -5.865070507740585  46.50351088561603  28.129178110972507  -14.920342771078008  24.86956240545199  0.000000
0.5069999999999998  0.000000  0.000000  0.000000  -26.938249952393313  0.15728377728628118  -1.653728583321374  56.182875706553695  9.54321861726308  -5.964429871763383  47.93017965831945  30.2535116000371  -18.236628992341448  24.994155586988025  0.000000
0.5459999999999998  0.000000  0.000000  0.000000  -26.65472889415833  0.3440693120455005  -0.6496349613955044  56.59220196531784  9.636905906146831  -6.132180538451828  49.11853433007986  32.41204793979163  -21.381670732020012  25.117390458388243  0.000000
0.5849999999999997  0.000000  0.000000  0.000000  -26.321469249933386  0.5687484835772381  0.5207978163019065  56.97425207933375  9.690792706843713  -6.366239791672582  50.123905886852754  34.567931802334655  -24.385998657774177  25.220165816914445  0.000000
0.6239999999999998  0.000000  0.000000  0.000000  -25.97672027591678  0.8305985975253414  1.844562145791477  57.318488062871566  9.70001529479353  -6.659331977779562  51.009744851757034  36.69788125969877  -27.299039054706064  25.28813983191361  0.000000
0.6629999999999998  0.000000  0.000000  0.000000  -25.656615757160377  1.1283287475506771  3.3036380593468824  57.62071115176488  9.662342765553765  -6.997736929460876  51.82627319594559  38.78838585248345  -30.159790634222187  25.313296441399924  0.000000
0.7019999999999997  0.000000  0.000000  0.000000  -25.3848808728624  1.4600408147097699  4.876549126977087  57.88472386228504  9.58001912353775  -7.360832721853357  52.59586990162809  40.8294319692626  -32.97059993160578  25.29223529078681  0.000000
0.7409999999999998  0.000000  0.000000  0.000000  -25.16812384603566  1.8236958711455378  6.540049634006599  58.12160920257782  9.459788820889262  -7.721862747270584  53.30864336153716  42.80861626719833  -35.687327531679344  25.22520677818252  0.000000
0.7799999999999997  0.000000  0.000000  0.000000  -25.000464355306214  2.2173535611289843  8.268982665361087  58.34627937037162  9.311083401430324  -8.049743274175375  53.93109277184951  44.7087016813127  -38.23133605529136  25.116734606443888  0.000000
0.8189999999999997  0.000000  0.000000  0.000000  -24.872388352205068  2.6393379860951196  10.033591173234715  58.57280046514467  9.14344440500357  -8.3113615667456  54.42059463046354  46.509480793615005  -40.516449217112864  24.977359396709453  0.000000
0.8579999999999997  0.000000  0.000000  0.000000  -24.779040337079305  3.088001687123187  11.796831295618485  58.81092119578019  8.96547248470681  -8.474746104841392  54.740103503816904  48.1922055093334  -42.476168859645945  24.824101948657503  0.000000
0.8969999999999997  0.000000  0.000000  0.000000  -24.723050861234398  3.5617475469436695  13.514568932559152  59.06478974526206  8.785459082373363  -8.512422874437648  54.866597121248965  49.744035311753265  -44.07807381142126  24.678565863763037  0.000000
0.9359999999999997  0.000000  0.000000  0.000000  -24.712053164336318  4.058228221213085  15.140663043494273  59.333252256072306  8.614233741629151  -8.406024583365946  54.79582207021227  51.16015487520573  -45.32525197077759  24.561552757472707  0.000000
0.9749999999999996  0.000000  0.000000  0.000000  -24.753767427994816  4.573103620081152  16.63488429797648  59.61045141407159  8.466826276844072  -8.150304756875885  54.54310298804205  52.4440831054308  -46.24978796498426  24.486525605583687  0.000000
1.0139999999999996  0.000000  0.000000  0.000000  -24.852511324560805  5.099647594243792  17.970110147628958  59.887517370328375  8.361078970946135  -7.754316134317119  54.139380932164464  53.60562604529167  -46.90314138041164  24.45479271486067  0.000000
1.0529999999999997  0.000000  0.000000  0.000000  -25.008481174921926  5.629837296236652  19.13566343730499  60.15430500229219  8.313940333566057  -7.23895809778574  53.62452544400652  54.65780268339037  -47.34655381100086  24.45571485201607  0.000000
1.0919999999999996  0.000000  0.000000  0.000000  -25.219493140448776  6.156582365966863  20.135321030391484  60.40237961463257  8.335912298772781  -6.630025452122198  53.03785978519469  55.613901650223326  -47.64077299458026  24.471547641023424  0.000000
1.1309999999999996  0.000000  0.000000  0.000000  -25.483005449799254  6.675343043598151  20.982739472155668  60.62689337438289  8.428390314260067  -5.951536339696842  52.413006019639816  56.485688052089856  -47.83803021455121  24.483767361013303  0.000000
1.1699999999999995  0.000000  0.000000  0.000000  -25.795909982823378  7.1839499019012605  21.696884516083802  60.826824277385036  8.585291798530262  -5.2229310151335335  51.77618130522438  57.2826813344284  -47.97572831894364  24.477054992154347  0.000000
1.2089999999999996  0.000000  0.000000  0.000000  -26.153056527865083  7.681563988681699  22.29875565943184  61.00430092564814  8.796244541712174  -4.4587552339132  51.14554909029339  58.01255748587152  -48.071603819429924  24.43917183059503  0.000000
1.2479999999999996  0.000000  0.000000  0.000000  -26.545782842429716  8.167138563914984  22.80952036234401  61.163195304401725  9.049776127999449  -3.670410838379374  50.531213873382185  58.68172315433923  -48.12257908148474  24.35940328730639  0.000000
1.2869999999999995  0.000000  0.000000  0.000000  -26.961985921960775  8.638315722310978  23.249129361500646  61.30766464445162  9.334858920753062  -2.868395671159418  49.93643274204379  59.296020443014235  -48.10962446889832  24.228492461614834  0.000000
1.3259999999999996  0.000000  0.000000  0.000000  -27.38776347355701  9.090808430227469  23.634552451504046  61.44099740504449  9.640939809579413  -2.06452730806427  49.36070230633757  59.86095866897094  -48.01079648776687  24.041727637104586  0.000000
1.3649999999999995  0.000000  0.000000  0.000000  -27.80957273176434  9.518266144153863  23.977921170965825  61.56522010274076  9.957345807560658  -1.2735960061427278  48.80382242359763  60.38162216160906  -47.81693093522139  23.803408289064723  0.000000
1.4039999999999995  0.000000  0.000000  0.000000  -28.215587184285948  9.912579927084176  24.285486693418683  61.68143715925694  10.273047183109108  -0.5136054440934082  48.2689582814324  60.86170672409311  -47.54233514465874  23.529026465119223  0.000000
1.4429999999999994  0.000000  0.000000  0.000000  -28.595679802159193  10.264779592292797  24.558549049213624  61.79032442150647  10.577400594007216  0.19545481161091655  47.764139992518515  61.3022857926173  -47.22312518278599  23.241944448608155  0.000000
1.4819999999999995  0.000000  0.000000  0.000000  -28.940584826737826  10.56694904929988  24.79589743368247  61.89210894823529  10.860799186764641  0.8342225946468321  47.30235998570986  61.700574834806076  -46.90497949111668  22.9653584429351  0.000000
1.5209999999999995  0.000000  0.000000  0.000000  -29.241129314820995  10.813467589212053  24.995449125724395  61.986561285167944  11.115259142208375  1.386700220403379  46.9006693172455  62.05014505699636  -46.62812509570815  22.713932182414478  0.000000
1.5599999999999994  0.000000  0.000000  0.000000  -29.488420986644066  11.00230451954067  25.15475893259976  62.072530045460404  11.334666118535587  1.842326513788839  46.57774038781074  62.34144873388562  -46.41695321042021  22.490618225662942  0.000000
1.5989999999999995  0.000000  0.000000  0.000000  -29.67559183488719  11.135225453098515  25.271460466476242  62.1475660050635  11.514326256942246  2.1952903142598696  46.35075904721203  62.56286119858892  -46.27726818343063  22.290800811952302  0.000000
